<svg xmlns="http://www.w3.org/2000/svg" width="2560" height="1440" viewBox="0 0 2560 1440"><rect width="2560" height="1440" fill="#111311"/><ellipse cx="1940" cy="700" rx="340" ry="180" transform="rotate(-28 1940 700)" fill="none" stroke="#718361" stroke-width="2" opacity="0.28"/><ellipse cx="1940" cy="700" rx="428" ry="240" transform="rotate(-28 1940 700)" fill="none" stroke="#718361" stroke-width="2" opacity="0.26"/><ellipse cx="1940" cy="700" rx="516" ry="300" transform="rotate(-28 1940 700)" fill="none" stroke="#718361" stroke-width="2" opacity="0.24000000000000002"/><ellipse cx="1940" cy="700" rx="604" ry="360" transform="rotate(-28 1940 700)" fill="none" stroke="#718361" stroke-width="2" opacity="0.22000000000000003"/><ellipse cx="1940" cy="700" rx="692" ry="420" transform="rotate(-28 1940 700)" fill="none" stroke="#718361" stroke-width="2" opacity="0.2"/><ellipse cx="1940" cy="700" rx="780" ry="480" transform="rotate(-28 1940 700)" fill="none" stroke="#718361" stroke-width="2" opacity="0.18000000000000002"/><ellipse cx="1940" cy="700" rx="868" ry="540" transform="rotate(-28 1940 700)" fill="none" stroke="#718361" stroke-width="2" opacity="0.16000000000000003"/><ellipse cx="1940" cy="700" rx="956" ry="600" transform="rotate(-28 1940 700)" fill="none" stroke="#718361" stroke-width="2" opacity="0.14"/><ellipse cx="1940" cy="700" rx="1044" ry="660" transform="rotate(-28 1940 700)" fill="none" stroke="#718361" stroke-width="2" opacity="0.12000000000000002"/><circle cx="2110" cy="440" r="12" fill="#e8ab62"/><circle cx="2300" cy="840" r="6" fill="#e8e9df"/><g transform="translate(660 585) scale(2.2)"><path d="M26 74 49 22Q51 18 54 23L78 74M35 56h33" fill="none" stroke="#e8e9df" stroke-width="5" stroke-linecap="round" stroke-linejoin="round"/><path d="M15 53C10 84 68 97 88 52" fill="none" stroke="#e8ab62" stroke-width="3" stroke-linecap="round"/><circle cx="86" cy="38" r="5" fill="#e8ab62"/>
</g><text x="940" y="687" font-family="Arial" font-size="106" fill="#e8e9df" letter-spacing="-5">asimulation.io</text><text x="945" y="758" font-family="Georgia" font-style="italic" font-size="37" fill="#b9c7aa">Conditions for emergence.</text><text x="946" y="815" font-family="Arial" font-size="18" letter-spacing="3" fill="#a0aaa0">ARTIFICIAL LIFE · EMBODIED AGENTS</text></svg>